<?xml version="1.0" standalone="no"?><!DOCTYPE svg PUBLIC "-//W3C//DTD SVG 1.1//EN" "http://www.w3.org/Graphics/SVG/1.1/DTD/svg11.dtd"><svg t="1501660400671" class="icon" style="" viewBox="0 0 1024 1024" version="1.1" xmlns="http://www.w3.org/2000/svg" p-id="2021" xmlns:xlink="http://www.w3.org/1999/xlink" width="45" height="45"><defs><style type="text/css"></style></defs><path d="M448.3 442.6H297.7l69.2-86.7h81.4zM503.8 442.6v-86.7h59.4l73.8 86.7z" p-id="2022" fill="#009c05"></path><path d="M503.8 59.5C254 59.5 51.6 262 51.6 511.7S254 964 503.8 964 956 761.5 956 511.7 753.5 59.5 503.8 59.5zM317 723.1c-37.1 0-67.1-29.8-67.1-66.5s30.1-66.5 67.1-66.5 67.1 29.8 67.1 66.5-30.1 66.5-67.1 66.5z m373.6 0c-37.1 0-67.1-29.8-67.1-66.5s30.1-66.5 67.1-66.5 67.1 29.8 67.1 66.5c0.1 36.7-30 66.5-67.1 66.5z m157.6-81h-58.9c-5.1-50.3-48-89.6-100.2-89.6s-95.1 39.3-100.2 89.6H417.2c-5.1-50.3-48-89.6-100.2-89.6s-95.1 39.3-100.2 89.6h-57.4c-16.1 0-29.2-12.9-29.2-28.9V471.5c0-16 13.1-28.9 29.2-28.9H227l99.9-125.2c3-9.5 11.8-16.4 22.2-16.4h221.4c9.4-1.9 19.4 1.1 26 8.9l112.9 132.8h43.9c59.2 0 124.1 59.2 124.1 115.6v54.9c0 16-13 28.9-29.2 28.9z" p-id="2023" fill="#009c05"></path></svg>