<?xml version="1.0" standalone="no"?><!DOCTYPE svg PUBLIC "-//W3C//DTD SVG 1.1//EN" "http://www.w3.org/Graphics/SVG/1.1/DTD/svg11.dtd"><svg t="1501660477080" class="icon" style="" viewBox="0 0 1024 1024" version="1.1" xmlns="http://www.w3.org/2000/svg" p-id="2237" xmlns:xlink="http://www.w3.org/1999/xlink" width="45" height="45"><defs><style type="text/css"></style></defs><path d="M409.2 472.5h106.1c12.3 0 22.3-9.4 22.3-20.9V340.7c0-11.6-10-20.9-22.3-20.9H409.2c-12.3 0-22.3 9.4-22.3 20.9v110.9c0.1 11.6 10 20.9 22.3 20.9z" p-id="2238" fill="#009c05"></path><path d="M511.4 73.7c-247.3 0-447.7 200.5-447.7 447.7 0 160 85.3 307.8 223.9 387.7 138.5 80 309.2 80 447.7 0s223.9-227.8 223.9-387.7c0-247.2-200.5-447.7-447.8-447.7z m216.2 306.7v292c0 50.6-41.9 50.6-48.6 50.6-4.9 0-49.6-0.5-49.6-51.2V473s-0.7-7.7-8.9-7.7h-23v260H616c7.6 0 13.8 5.8 13.8 12.9v19.1c0 7.1-6.2 13.6-13.8 13.6H309c-7.6 0-13.8-6.4-13.8-13.6v-19.1c0-7.1 6.1-12.9 13.8-12.9h19.1v-422c0-17.4 15-31.4 33.4-31.4h202.6c18.5 0 33.4 14.1 33.4 31.4V435c12-0.1 34.1-0.3 39.6 0 22.5 1.1 24.7 9.6 24.7 28.3v206.4c0 14.1 8.9 18.5 17.3 18.5s16.5-4.4 16.5-18.5V417.3s-0.7-2.6-3.5-2.6h-41.7c-1 0-3.2-0.7-3.2-2.5 0-2.1-0.2-5.4-0.2-10.3 0-0.6-0.1-1.8 1-2.9 8.2-8.6 21.4-18.3 29.4-27.5-9.6-9.9-26.4-23.1-33.9-29.8-5.2-4.7-8.3-13.9-1.2-20.9 7.4-7.3 18.6-4.7 23.5-0.1 8.7 8.1 37 31.6 53.7 45.7 8.4 7.1 8.1 14 8.1 14z" p-id="2239" fill="#009c05"></path><path d="M509.2 505.2L376.9 632.5h80.3l-37.6 89.8 126.7-128.7h-73.7z" p-id="2240" fill="#009c05"></path></svg>